<?xml version="1.0" encoding="utf-8"?>
<!-- Generator: Adobe Illustrator 16.0.4, SVG Export Plug-In . SVG Version: 6.00 Build 0)  -->
<!DOCTYPE svg PUBLIC "-//W3C//DTD SVG 1.1//EN" "http://www.w3.org/Graphics/SVG/1.1/DTD/svg11.dtd">
<svg version="1.1" id="Ebene_1" xmlns="http://www.w3.org/2000/svg" xmlns:xlink="http://www.w3.org/1999/xlink" x="0px" y="0px"
	 width="160px" height="160px" viewBox="0 0 160 160" enable-background="new 0 0 160 160" xml:space="preserve">
<g>
	<path fill="#008000" d="M158.787,40.367c0,2.716-0.958,5.025-2.851,6.925L82.231,120.99l-13.843,13.842c-1.9,1.9-4.208,2.852-6.917,2.852
		c-2.717,0-5.025-0.951-6.926-2.852L40.703,120.99L3.85,84.138C1.95,82.236,1,79.935,1,77.22c0-2.716,0.95-5.025,2.85-6.926
		l13.851-13.843c1.893-1.899,4.201-2.85,6.917-2.85c2.717,0,5.025,0.951,6.925,2.85l29.928,30.031l66.774-66.884
		c1.898-1.893,4.206-2.85,6.924-2.85c2.709,0,5.018,0.957,6.916,2.85l13.852,13.851C157.829,35.349,158.787,37.658,158.787,40.367z"
		/>
</g>
</svg>
