<?xml version="1.0" encoding="utf-8"?>
<!-- Generator: Adobe Illustrator 16.0.4, SVG Export Plug-In . SVG Version: 6.00 Build 0)  -->
<!DOCTYPE svg PUBLIC "-//W3C//DTD SVG 1.1//EN" "http://www.w3.org/Graphics/SVG/1.1/DTD/svg11.dtd">
<svg version="1.1" id="Ebene_1" xmlns="http://www.w3.org/2000/svg" xmlns:xlink="http://www.w3.org/1999/xlink" x="0px" y="0px"
	 width="160px" height="100px" viewBox="0 0 160 100" enable-background="new 0 0 160 100" xml:space="preserve">
<g>
	<path d="M18.825,65l23.223-37.545l8.348,27.494l13.553-16.486L76.038,65H99V49.73c0-4.343,1.844-6.957,3.447-8.386
		c2-1.781,4.652-2.763,7.528-2.763c2.872,0,5.571,0.968,7.632,2.725c0.297,0.253,0.568,0.521,0.831,0.802
		c0.304-0.354,0.627-0.689,0.979-1.003c2.053-1.823,4.768-2.827,7.65-2.827c5.501,0,11.068,3.993,11.068,11.453
		c0,3.512-0.012,11.268-0.019,15.268H160V0H0v65H18.825z"/>
	<path d="M132.72,70l0.005-2.595c0,0,0.021-12.894,0.021-17.815c0-1.956-0.584-3.456-1.737-4.513
		c-1.011-0.925-2.524-1.422-4.056-1.422c-2.17,0-5.953,1.234-5.953,5.806V70h-5V49.461c0-3.771-3.138-5.49-5.978-5.49
		c-1.553,0-3.132,0.497-4.145,1.398C104.742,46.381,104,47.848,104,49.73V70H72.574l-9.935-21.649L48.168,66.08l-7.82-25.877
		L21.825,70H0v30h160V70H132.72z"/>
</g>
</svg>
