<?xml version="1.0" encoding="utf-8"?>
<!-- Generator: Adobe Illustrator 16.0.4, SVG Export Plug-In . SVG Version: 6.00 Build 0)  -->
<!DOCTYPE svg PUBLIC "-//W3C//DTD SVG 1.1//EN" "http://www.w3.org/Graphics/SVG/1.1/DTD/svg11.dtd">
<svg version="1.1" id="Ebene_1" xmlns="http://www.w3.org/2000/svg" xmlns:xlink="http://www.w3.org/1999/xlink" x="0px" y="0px"
	 width="160px" height="100px" viewBox="0 0 160 100" enable-background="new 0 0 160 100" xml:space="preserve">
<g>
	<g>
		<g>
			<path d="M76.321,49.322v-2.264h3.213v-0.214c0-2.266-1.045-3.926-8.244-2.679l-11.84,2.108l-6.812,9.45l16.348-2.899
				c4.898-0.841,9.199-1.017,10.549,2.878v-6.381H76.321z"/>
			<path d="M81.769,55.703c0-3.083,1.821-5.2,5.539-8.918l2.62-2.619l11.972,2.108l6.824,9.44l-15.698-2.709
				C87.701,51.984,83.189,51.627,81.769,55.703z"/>
		</g>
		<path d="M82.432,47.054c1.186-2.545,3.712-4.847,5.164-6.298l1.033-1.05c4.396-4.397,5.242-6.217,5.51-9.244
			c0.012-0.158,0.237,0.593,0.306,1.125c0.226,1.784,0.095,3.079-0.511,4.866c-0.907,2.67-3.054,4.797-5.84,7.583l-3.03,3.018
			H82.432z"/>
		<path d="M84.985,10.185c0-0.023,0.072-0.037,0.072,0v3.507c0,3.172-4.075,6.83-5.698,8.443l-5.971,5.986
			c-2.066,2.064-6.197,6.141-4.463,10.074c0.059,0.131,0.111,0.244-0.11,0.087c-0.44-0.313-1.111-1.414-1.289-3.427
			c-0.317-3.585,2.127-6.794,5.142-9.811l5.695-5.702C84.141,13.565,84.704,12.549,84.985,10.185z"/>
		<path d="M79.359,28.135c1.623-1.612,5.698-5.271,5.698-8.442v-3.507c0-0.036-0.072-0.023-0.072,0
			c-0.281,2.363-0.845,3.382-6.622,9.158l-5.29,5.3c-1.922,1.922-3.685,3.938-3.604,7.19c0.051,1.993,1.053,3.646,2.562,4.036
			c0.62,0.133,0.583,0.053,0.435-0.011c-2.131-1.006-1.977-4.853,1.466-8.296L79.359,28.135z"/>
		<path d="M72.717,22.832c-4.396,4.396-5.242,6.215-5.508,9.242c-0.013,0.159-0.239-0.593-0.307-1.125
			c-0.227-1.784-0.096-3.079,0.512-4.866c0.905-2.669,3.052-4.797,5.839-7.582l5.11-5.12c5.777-5.776,6.341-6.795,6.622-9.158
			c0-0.023,0.072-0.037,0.072,0v3.507c0,3.171-4.075,6.83-5.698,8.442L72.717,22.832z"/>
		<path d="M81.844,52.807c-0.004,0.027-0.075,0.027-0.075,0v-3.484h1.459C82.402,50.503,81.98,51.646,81.844,52.807z"/>
		<path d="M81.854,47.059c-0.003,0.026-0.075,0.026-0.075,0V43.51c0-2.664,2.611-5.547,5.201-8.118l1.68-1.678
			c1.354-1.356,5.495-5.439,3.761-9.373c-0.059-0.13-0.111-0.243,0.11-0.087c0.44,0.314,1.11,1.415,1.288,3.427
			c0.318,3.585-2.126,6.796-5.142,9.811l-1.554,1.561C83.381,42.796,82.136,44.474,81.854,47.059z"/>
		<path d="M81.85,40.905c-0.003,0.027-0.075,0.027-0.075,0v-3.602c0-2.542,2.521-5.283,3.744-6.507l1.896-1.893
			c3.442-3.443,3.596-7.29,1.466-8.295c-0.147-0.063-0.187-0.145,0.435-0.011c1.51,0.39,2.511,2.042,2.562,4.035
			c0.081,3.254-1.652,5.257-3.575,7.178l-1.536,1.537C83.55,36.564,82.143,38.443,81.85,40.905z"/>
		<g>
			<path d="M109.771,48.267c0.56,0,1.035,0.195,1.431,0.59c0.394,0.394,0.59,0.871,0.59,1.43s-0.196,1.035-0.591,1.429
				c-0.396,0.394-0.872,0.59-1.43,0.59c-0.626,0-1.137-0.236-1.536-0.712c-0.321-0.383-0.483-0.818-0.483-1.307
				c0-0.497,0.16-0.934,0.48-1.312C108.636,48.502,109.149,48.267,109.771,48.267z M109.771,48.49c-0.493,0-0.92,0.176-1.271,0.526
				c-0.349,0.351-0.524,0.774-0.524,1.271s0.176,0.92,0.524,1.271c0.351,0.352,0.777,0.526,1.271,0.526
				c0.495,0,0.918-0.175,1.27-0.526c0.351-0.352,0.526-0.775,0.526-1.271c0-0.498-0.175-0.922-0.524-1.272
				C110.692,48.666,110.269,48.49,109.771,48.49z M110.024,50.28l0.451,0.658l0.057,0.08c0.139,0.205,0.268,0.311,0.381,0.316
				l0.053,0.002c0.036,0.003,0.054,0.02,0.051,0.051c-0.003,0.055-0.092,0.083-0.266,0.083c-0.198,0-0.377-0.12-0.537-0.359
				l-0.423-0.635l-0.021-0.038c-0.024-0.037-0.062-0.056-0.114-0.056h-0.226l-0.024,0.003l-0.009,0.033v0.588
				c0,0.13,0.018,0.216,0.053,0.258c0.035,0.04,0.115,0.066,0.238,0.081c0.055,0.006,0.082,0.025,0.085,0.062
				c0.002,0.038-0.024,0.056-0.08,0.056c-0.017,0-0.053-0.003-0.104-0.009c-0.044-0.006-0.114-0.009-0.214-0.009h-0.253
				c-0.034,0-0.081,0.005-0.141,0.012c-0.046,0.005-0.073,0.006-0.085,0.006c-0.051,0-0.075-0.019-0.075-0.057
				c0-0.029,0.02-0.048,0.062-0.058c0.088-0.021,0.144-0.059,0.168-0.114c0.023-0.056,0.036-0.176,0.036-0.362v-1.196l-0.005-0.172
				c0-0.162-0.056-0.25-0.168-0.268l-0.079-0.011c-0.05-0.009-0.075-0.031-0.075-0.065c0-0.037,0.027-0.057,0.079-0.057
				c0.014,0,0.054,0.003,0.122,0.009c0.036,0.002,0.086,0.003,0.148,0.003c0.054,0,0.142-0.003,0.264-0.012
				c0.094-0.004,0.172-0.007,0.24-0.007c0.54,0,0.812,0.198,0.812,0.597C110.425,49.943,110.292,50.139,110.024,50.28z
				 M109.491,50.208h0.19c0.295,0,0.443-0.144,0.443-0.432c0-0.146-0.056-0.267-0.165-0.365c-0.111-0.099-0.246-0.147-0.411-0.147
				c-0.104,0-0.154,0.041-0.154,0.123l0.003,0.056v0.669c0,0.046,0.005,0.072,0.013,0.082
				C109.42,50.203,109.447,50.208,109.491,50.208z"/>
		</g>
	</g>
	<g>
		<path d="M41.671,64.511c0,0.463-0.026,0.463,0.52,0.463h1.473c1.42,0,1.051-1.092,1.378-1.092c0.11,0,0.151,0.151,0.151,0.26
			c0,0.479-0.027,0.942-0.027,1.378c0,0.356,0.027,0.71,0.027,1.078c0,0.123-0.055,0.178-0.151,0.178c-0.422,0,0.042-1.2-1.104-1.2
			h-2.02c-0.313,0-0.246,0.231-0.246,0.436v2.757c0,1.296,1.283,0.942,1.283,1.256c0,0.19-0.205,0.19-0.3,0.19
			c-0.096,0-0.232-0.068-1.501-0.068c-0.696,0-1.174,0.068-1.42,0.068c-0.108,0-0.136-0.095-0.136-0.122
			c0-0.382,0.996,0.013,0.996-1.502V62.3c0-0.614,0-1.269-0.736-1.378c-0.11-0.028-0.41-0.055-0.41-0.218
			c0-0.11,0.082-0.164,0.479-0.164c2.577,0,3.287,0.054,3.86,0.054c0.273,0,1.529-0.054,1.951-0.054c0.11,0,0.137,0.136,0.137,0.3
			c0,1.514-0.19,1.624-0.272,1.624c-0.328,0-0.109-0.656-0.328-0.969c-0.354-0.464-1.773-0.382-2.319-0.382
			c-1.31,0-1.283-0.056-1.283,0.858V64.511z"/>
		<path d="M51.363,69.054c0.749,1.144,1.259,0.759,1.259,1.009c0,0.125-0.582,0.125-0.676,0.125c-0.76,0-1.165-0.53-1.561-1.123
			l-1.154-1.821c-0.375-0.582-0.218-0.552-1.384-0.552c-0.333,0-0.271,0.188-0.271,0.292v2.195c0,0.895,1.082,0.572,1.082,0.925
			c0,0.104-0.094,0.084-0.178,0.084c-0.093,0-0.332-0.042-1.195-0.042c-0.396,0-0.791,0.042-1.186,0.042
			c-0.063,0-0.105-0.051-0.105-0.114c0-0.261,0.76-0.115,0.76-0.904v-5.297c0-0.998-0.894-0.571-0.894-0.924
			c0-0.063,0.082-0.126,0.207-0.126c0.188,0,0.135,0.042,0.666,0.042c0.604,0,1.196-0.042,1.737-0.042
			c0.167,0,2.466-0.208,2.466,1.8c0,0.811-0.583,1.508-1.312,1.8L51.363,69.054z M47.577,66.193c0,0.197,0.646,0.146,1.134,0.146
			c0.447,0,1.446-0.188,1.446-1.478c0-1.27-0.968-1.695-1.987-1.695c-0.375,0-0.593-0.021-0.593,0.384V66.193z"/>
		<path d="M54.356,65.851c0,0.354-0.021,0.354,0.396,0.354h1.123c1.082,0,0.802-0.833,1.051-0.833c0.083,0,0.115,0.114,0.115,0.198
			c0,0.363-0.021,0.717-0.021,1.051c0,0.271,0.021,0.54,0.021,0.821c0,0.094-0.043,0.136-0.115,0.136
			c-0.322,0,0.031-0.916-0.843-0.916h-1.539c-0.218,0-0.188,0.177-0.188,0.333v1.914c0,0.614-0.083,0.863,0.791,0.863
			c2.403,0,2.757-1.071,2.892-1.071c0.072,0,0.083,0.104,0.083,0.124c0,0.375-0.271,0.739-0.521,1.01
			c-0.332,0.374-0.561,0.354-1.019,0.354c-0.79,0-1.582-0.062-2.372-0.042c-0.416,0.011-0.853,0.042-1.269,0.042
			c-0.094,0-0.156-0.021-0.156-0.104c0.021-0.126,0.124-0.104,0.457-0.271c0.271-0.124,0.292-0.416,0.292-0.904v-4.744
			c0-0.468,0-0.967-0.562-1.05c-0.084-0.021-0.312-0.042-0.312-0.166c0-0.084,0.062-0.126,0.364-0.126
			c1.966,0,2.507,0.042,2.943,0.042c0.208,0,1.166-0.042,1.488-0.042c0.083,0,0.104,0.104,0.104,0.229
			c0,1.154-0.146,1.237-0.208,1.237c-0.25,0-0.083-0.499-0.25-0.739c-0.271-0.353-1.352-0.29-1.768-0.29
			c-1,0-0.979-0.041-0.979,0.654V65.851z"/>
		<path d="M59.306,63.718c-0.011-0.76-0.843-0.552-0.843-0.78c0-0.094,0.021-0.115,0.104-0.115c0.385,0,0.76,0.042,1.145,0.042
			c0.322,0,0.645-0.042,0.967-0.042c0.167,0,0.198,0.021,0.198,0.104c0,0.25-0.749,0.011-0.749,0.791v5.585
			c0,0.708,0.926,0.469,0.926,0.781c0,0.072-0.031,0.104-0.208,0.104c-0.239,0-0.688-0.042-1.134-0.042
			c-0.635,0-0.853,0.042-0.999,0.042c-0.188,0-0.218-0.051-0.218-0.155c0-0.303,0.811,0.041,0.811-0.989V63.718z"/>
		<path d="M65.421,64.279c0.198-0.178,0.739-0.583,0.739-0.843c0-0.333-0.582-0.303-0.582-0.488c0-0.084,0.051-0.126,0.135-0.126
			c0.384,0,0.551,0.042,1.103,0.042c0.541,0,0.624-0.042,0.957-0.042c0.062,0,0.188,0.011,0.188,0.083
			c0,0.333-0.239-0.062-1.425,0.906l-2.435,2.163c-0.094,0.083-0.156,0.146-0.156,0.198c0,0.062,0.041,0.113,0.113,0.197
			l2.894,3.026c0.696,0.729,1.144,0.333,1.144,0.655c0,0.085-0.052,0.136-0.125,0.136c-0.208,0-0.427-0.042-0.635-0.042
			c-0.219,0-0.426,0.042-0.646,0.042c-0.135,0-0.218-0.166-0.312-0.26l-2.934-3.059c-0.062-0.073-0.135-0.104-0.187-0.104
			s-0.094,0.03-0.094,0.104v2.174c0,1.154,1.02,0.667,1.02,1.041c0,0.104-0.219,0.104-0.281,0.104c-0.03,0-0.219-0.042-1.02-0.042
			c-0.53,0-0.853,0.042-1.02,0.042c-0.113,0-0.26-0.01-0.26-0.166c0-0.166,0.739,0.011,0.739-0.874v-5.325
			c0-0.864-0.874-0.615-0.874-0.885c0-0.094,0.041-0.115,0.135-0.115c0.333,0,0.667,0.042,1.009,0.042
			c0.437,0,0.759-0.042,1.071-0.042c0.053,0,0.084,0.032,0.084,0.094c0,0.229-0.604,0.124-0.604,0.863v2.341
			c0,0.062,0.021,0.105,0.052,0.105c0.031,0,0.073-0.012,0.114-0.053L65.421,64.279z"/>
		<path d="M69.289,63.718c-0.012-0.76-0.843-0.552-0.843-0.78c0-0.094,0.02-0.115,0.104-0.115c0.384,0,0.759,0.042,1.144,0.042
			c0.322,0,0.645-0.042,0.968-0.042c0.166,0,0.196,0.021,0.196,0.104c0,0.25-0.748,0.011-0.748,0.791v5.585
			c0,0.708,0.926,0.469,0.926,0.781c0,0.072-0.032,0.104-0.208,0.104c-0.239,0-0.687-0.042-1.134-0.042
			c-0.636,0-0.854,0.042-0.999,0.042c-0.188,0-0.219-0.051-0.219-0.155c0-0.303,0.812,0.041,0.812-0.989V63.718z"/>
		<path d="M76.901,69.054c0.75,1.144,1.26,0.759,1.26,1.009c0,0.125-0.584,0.125-0.678,0.125c-0.759,0-1.164-0.53-1.56-1.123
			l-1.155-1.821c-0.374-0.582-0.218-0.552-1.384-0.552c-0.333,0-0.27,0.188-0.27,0.292v2.195c0,0.895,1.082,0.572,1.082,0.925
			c0,0.104-0.094,0.084-0.177,0.084c-0.094,0-0.333-0.042-1.197-0.042c-0.395,0-0.79,0.042-1.186,0.042
			c-0.062,0-0.104-0.051-0.104-0.114c0-0.261,0.76-0.115,0.76-0.904v-5.297c0-0.998-0.895-0.571-0.895-0.924
			c0-0.063,0.084-0.126,0.208-0.126c0.188,0,0.136,0.042,0.665,0.042c0.604,0,1.198-0.042,1.738-0.042
			c0.166,0,2.465-0.208,2.465,1.8c0,0.811-0.582,1.508-1.31,1.8L76.901,69.054z M73.115,66.193c0,0.197,0.645,0.146,1.135,0.146
			c0.446,0,1.445-0.188,1.445-1.478c0-1.27-0.968-1.695-1.987-1.695c-0.375,0-0.593-0.021-0.593,0.384V66.193z"/>
		<path d="M81.996,62.729c1.955,0,2.497,0.802,2.799,0.802c0.082,0,0.146-0.104,0.249-0.104c0.114,0,0.114,0.166,0.146,0.843
			c0.02,0.551,0.113,0.895-0.062,0.895c-0.125,0-0.198-0.271-0.239-0.344c-0.646-1.113-1.385-1.788-2.727-1.788
			c-2.028,0-3.007,1.352-3.007,3.286c0,1.811,1.042,3.62,3.039,3.62c1.633,0,2.652-1.04,2.809-1.519
			c0.021-0.073,0.083-0.135,0.145-0.135c0.053,0,0.104,0.062,0.094,0.113l-0.238,1.04c-0.011,0.043-0.749,0.823-3.09,0.823
			c-2.133,0-3.662-1.467-3.662-3.621C78.251,64.486,79.802,62.729,81.996,62.729z"/>
		<path d="M86.466,63.718c-0.011-0.76-0.904-0.552-0.904-0.78c0-0.094,0.083-0.115,0.166-0.115c0.385,0,0.76,0.042,1.144,0.042
			c0.323,0,0.645-0.042,0.968-0.042c0.178,0,0.197,0.062,0.197,0.104c0,0.207-0.748,0.011-0.748,0.791v2.246
			c0,0.146,0,0.188,0.155,0.188h3.808c0.104,0,0.084-0.26,0.084-0.301v-2.133c0-0.719-0.781-0.541-0.781-0.78
			c0-0.063,0.021-0.115,0.178-0.115c0.343,0,0.883,0.042,1.081,0.042c0.386,0,0.541-0.042,0.749-0.042
			c0.271,0,0.292,0.104,0.292,0.167c0,0.188-0.697,0.01-0.697,0.729v5.513c0,0.76,0.946,0.572,0.946,0.832
			c0,0.031-0.041,0.125-0.115,0.125c-0.279,0-0.602-0.042-0.977-0.042c-0.666,0-0.957,0.042-1.154,0.042
			c-0.094,0-0.251,0.031-0.251-0.136c0-0.249,0.729-0.103,0.729-0.759v-2.497c0-0.165,0.041-0.261-0.084-0.261h-3.838
			c-0.125,0-0.125,0.063-0.125,0.178v2.59c0,0.708,0.988,0.479,0.988,0.801c0,0.053-0.072,0.084-0.166,0.084
			c-0.135,0-0.895-0.042-1.446-0.042c-0.739,0-0.854,0.042-0.896,0.042c-0.083,0-0.113-0.051-0.113-0.155
			c0-0.303,0.811,0.041,0.811-0.989V63.718z"/>
		<path d="M95.076,65.851c0,0.354-0.021,0.354,0.396,0.354h1.123c1.082,0,0.801-0.833,1.051-0.833c0.083,0,0.114,0.114,0.114,0.198
			c0,0.363-0.021,0.717-0.021,1.051c0,0.271,0.021,0.54,0.021,0.821c0,0.094-0.042,0.136-0.114,0.136
			c-0.322,0,0.031-0.916-0.843-0.916h-1.539c-0.219,0-0.188,0.177-0.188,0.333v1.914c0,0.614-0.084,0.863,0.79,0.863
			c2.403,0,2.758-1.071,2.893-1.071c0.072,0,0.083,0.104,0.083,0.124c0,0.375-0.271,0.739-0.521,1.01
			c-0.333,0.374-0.562,0.354-1.02,0.354c-0.789,0-1.58-0.062-2.371-0.042c-0.416,0.011-0.854,0.042-1.27,0.042
			c-0.094,0-0.155-0.021-0.155-0.104c0.021-0.126,0.124-0.104,0.457-0.271c0.271-0.124,0.292-0.416,0.292-0.904v-4.744
			c0-0.468,0-0.967-0.562-1.05c-0.085-0.021-0.313-0.042-0.313-0.166c0-0.084,0.062-0.126,0.365-0.126
			c1.966,0,2.507,0.042,2.943,0.042c0.208,0,1.165-0.042,1.487-0.042c0.084,0,0.104,0.104,0.104,0.229
			c0,1.154-0.146,1.237-0.208,1.237c-0.25,0-0.084-0.499-0.25-0.739c-0.271-0.353-1.353-0.29-1.769-0.29
			c-0.999,0-0.978-0.041-0.978,0.654V65.851z"/>
		<path d="M102.333,63.936c0-1.062-0.852-0.729-0.852-1.009c0-0.072,0.083-0.104,0.146-0.104c0.322,0,0.624,0.042,0.937,0.042
			c0.687,0,1.362-0.042,2.258-0.042c1.841,0,3.65,1.395,3.65,3.318c0,2.393-1.134,4.047-4.016,4.047
			c-0.53,0-1.062-0.042-1.591-0.042c-0.094,0-1.093,0.042-1.166,0.042c-0.083,0-0.104-0.042-0.104-0.104
			c0-0.239,0.738,0.02,0.738-0.968V63.936z M103.156,68.679c0,0.166-0.032,0.665,0.062,0.759c0.344,0.345,1.135,0.469,1.604,0.469
			c1.476,0,2.881-0.79,2.881-3.193c0-2.31-1.54-3.62-3.517-3.63c-0.987,0-1.029,0.166-1.029,0.654V68.679z"/>
		<path d="M110.341,65.851c0,0.354-0.021,0.354,0.396,0.354h1.122c1.082,0,0.802-0.833,1.051-0.833c0.082,0,0.114,0.114,0.114,0.198
			c0,0.363-0.021,0.717-0.021,1.051c0,0.271,0.021,0.54,0.021,0.821c0,0.094-0.042,0.136-0.114,0.136
			c-0.322,0,0.031-0.916-0.842-0.916h-1.54c-0.219,0-0.188,0.177-0.188,0.333v1.914c0,0.614-0.083,0.863,0.79,0.863
			c2.404,0,2.757-1.071,2.893-1.071c0.073,0,0.082,0.104,0.082,0.124c0,0.375-0.27,0.739-0.519,1.01
			c-0.333,0.374-0.562,0.354-1.02,0.354c-0.791,0-1.582-0.062-2.372-0.042c-0.417,0.011-0.853,0.042-1.27,0.042
			c-0.094,0-0.156-0.021-0.156-0.104c0.021-0.126,0.125-0.104,0.458-0.271c0.271-0.124,0.291-0.416,0.291-0.904v-4.744
			c0-0.468,0-0.967-0.562-1.05c-0.083-0.021-0.312-0.042-0.312-0.166c0-0.084,0.062-0.126,0.364-0.126
			c1.966,0,2.507,0.042,2.943,0.042c0.209,0,1.166-0.042,1.488-0.042c0.082,0,0.103,0.104,0.103,0.229
			c0,1.154-0.145,1.237-0.207,1.237c-0.25,0-0.083-0.499-0.25-0.739c-0.271-0.353-1.352-0.29-1.769-0.29
			c-0.999,0-0.978-0.041-0.978,0.654V65.851z"/>
		<path d="M119.649,69.054c0.748,1.144,1.258,0.759,1.258,1.009c0,0.125-0.583,0.125-0.676,0.125c-0.761,0-1.165-0.53-1.561-1.123
			l-1.154-1.821c-0.375-0.582-0.218-0.552-1.384-0.552c-0.334,0-0.271,0.188-0.271,0.292v2.195c0,0.895,1.082,0.572,1.082,0.925
			c0,0.104-0.094,0.084-0.178,0.084c-0.093,0-0.333-0.042-1.195-0.042c-0.395,0-0.792,0.042-1.186,0.042
			c-0.063,0-0.104-0.051-0.104-0.114c0-0.261,0.76-0.115,0.76-0.904v-5.297c0-0.998-0.896-0.571-0.896-0.924
			c0-0.063,0.083-0.126,0.209-0.126c0.187,0,0.135,0.042,0.666,0.042c0.603,0,1.195-0.042,1.736-0.042
			c0.167,0,2.466-0.208,2.466,1.8c0,0.811-0.582,1.508-1.312,1.8L119.649,69.054z M115.862,66.193c0,0.197,0.646,0.146,1.134,0.146
			c0.447,0,1.446-0.188,1.446-1.478c0-1.27-0.968-1.695-1.986-1.695c-0.376,0-0.594-0.021-0.594,0.384V66.193z"/>
		<path d="M1.301,78.963c-0.055-0.273,0.013-0.423,0.15-0.423c0.189,0,0.189,0.164,0.259,0.451c0.163,0.627,0.983,2.047,2.865,2.047
			c1.297,0,2.565-0.725,2.565-2.156c0-2.634-5.54-1.16-5.54-4.722c0-1.732,1.46-2.565,3.029-2.565c1.651,0,2.101,0.491,2.293,0.491
			c0.122,0,0.15-0.149,0.286-0.149c0.082,0,0.149,0.041,0.164,0.19l0.204,1.856c0.014,0.108-0.014,0.205-0.15,0.205
			c-0.15,0-0.245-0.287-0.286-0.41c-0.41-1.173-1.406-1.773-2.606-1.773c-1.078,0-2.225,0.517-2.225,1.773
			c0,2.564,5.54,1.064,5.54,4.831c0,1.146-0.805,2.864-3.903,2.864c-1.009,0-2.25-0.504-2.306-0.75L1.301,78.963z"/>
		<path d="M9.145,74.896c-0.011-0.759-0.843-0.552-0.843-0.78c0-0.094,0.021-0.114,0.104-0.114c0.385,0,0.76,0.042,1.144,0.042
			c0.323,0,0.646-0.042,0.968-0.042c0.166,0,0.197,0.021,0.197,0.104c0,0.25-0.749,0.011-0.749,0.791v5.586
			c0,0.708,0.926,0.469,0.926,0.78c0,0.072-0.03,0.104-0.208,0.104c-0.238,0-0.687-0.042-1.134-0.042
			c-0.634,0-0.853,0.042-0.998,0.042c-0.188,0-0.218-0.052-0.218-0.156c0-0.302,0.811,0.041,0.811-0.987V74.896z"/>
		<path d="M12.815,77.028c0,0.354-0.021,0.354,0.395,0.354h1.124c1.081,0,0.802-0.832,1.051-0.832c0.082,0,0.114,0.114,0.114,0.197
			c0,0.364-0.021,0.717-0.021,1.051c0,0.271,0.021,0.54,0.021,0.821c0,0.094-0.041,0.137-0.114,0.137
			c-0.322,0,0.03-0.917-0.842-0.917h-1.541c-0.218,0-0.187,0.177-0.187,0.333v1.915c0,0.613-0.083,0.863,0.791,0.863
			c2.402,0,2.756-1.072,2.892-1.072c0.072,0,0.082,0.104,0.082,0.124c0,0.375-0.27,0.739-0.519,1.01
			c-0.333,0.374-0.562,0.354-1.02,0.354c-0.791,0-1.582-0.063-2.372-0.042c-0.416,0.01-0.854,0.042-1.269,0.042
			c-0.094,0-0.157-0.021-0.157-0.104c0.021-0.125,0.125-0.104,0.458-0.271c0.271-0.124,0.291-0.416,0.291-0.904v-4.745
			c0-0.467,0-0.966-0.562-1.05c-0.083-0.021-0.312-0.042-0.312-0.166c0-0.083,0.062-0.125,0.364-0.125
			c1.965,0,2.506,0.042,2.943,0.042c0.207,0,1.166-0.042,1.487-0.042c0.084,0,0.104,0.104,0.104,0.229
			c0,1.154-0.145,1.237-0.207,1.237c-0.251,0-0.083-0.499-0.251-0.739c-0.27-0.353-1.352-0.291-1.768-0.291
			c-0.999,0-0.978-0.041-0.978,0.655V77.028z"/>
		<path d="M17.599,75.041c0-0.791-0.926-0.687-0.926-0.896c0-0.154,0.155-0.145,0.281-0.145c0.207,0,0.415,0.042,0.831,0.042
			c0.417,0,0.833-0.042,1.664-0.042c1.832,0,2.289,0.998,2.289,1.768c0,1.062-0.978,1.405-0.978,1.478
			c0,0.157,1.634,0.188,1.634,1.915c0,0.687-0.499,2.205-2.529,2.205c-0.373,0-0.998-0.042-1.352-0.042
			c-0.479,0-0.968,0.042-1.446,0.042c-0.052,0-0.26-0.021-0.26-0.115c0-0.104,0.124-0.135,0.312-0.196
			c0.115-0.032,0.479-0.084,0.479-0.896V75.041z M18.42,76.841c0,0.333-0.124,0.385,0.812,0.385c1.705,0,1.789-0.635,1.789-1.123
			c0-1.123-0.946-1.759-1.997-1.759c-0.655,0-0.604,0.177-0.604,0.78V76.841z M18.42,80.117c0,0.75-0.052,0.968,1.425,0.968
			c1.384,0,1.759-0.915,1.759-1.54c0-0.665-0.042-1.996-2.435-1.996c-0.801,0-0.749,0.146-0.749,0.239V80.117z"/>
		<path d="M24.118,77.028c0,0.354-0.021,0.354,0.395,0.354h1.124c1.082,0,0.801-0.832,1.051-0.832c0.083,0,0.114,0.114,0.114,0.197
			c0,0.364-0.021,0.717-0.021,1.051c0,0.271,0.021,0.54,0.021,0.821c0,0.094-0.042,0.137-0.114,0.137
			c-0.322,0,0.031-0.917-0.843-0.917h-1.539c-0.22,0-0.188,0.177-0.188,0.333v1.915c0,0.613-0.084,0.863,0.791,0.863
			c2.402,0,2.756-1.072,2.892-1.072c0.072,0,0.083,0.104,0.083,0.124c0,0.375-0.271,0.739-0.521,1.01
			c-0.333,0.374-0.562,0.354-1.02,0.354c-0.791,0-1.58-0.063-2.371-0.042c-0.416,0.01-0.854,0.042-1.27,0.042
			c-0.094,0-0.155-0.021-0.155-0.104c0.02-0.125,0.124-0.104,0.457-0.271c0.271-0.124,0.292-0.416,0.292-0.904v-4.745
			c0-0.467,0-0.966-0.562-1.05c-0.082-0.021-0.312-0.042-0.312-0.166c0-0.083,0.062-0.125,0.365-0.125
			c1.966,0,2.506,0.042,2.943,0.042c0.208,0,1.165-0.042,1.487-0.042c0.084,0,0.104,0.104,0.104,0.229
			c0,1.154-0.146,1.237-0.208,1.237c-0.25,0-0.084-0.499-0.25-0.739c-0.271-0.353-1.353-0.291-1.769-0.291
			c-0.998,0-0.978-0.041-0.978,0.655V77.028z"/>
		<path d="M28.776,76.05c0-2.163-1.26-1.561-1.26-1.945c0-0.062,0.104-0.104,0.157-0.104c0.167,0,0.322,0.042,0.488,0.042
			c0.156,0,0.322-0.042,0.479-0.042c0.114,0,0.208,0.166,0.27,0.238l4.962,5.523c0.062,0.074,0.104,0.115,0.126,0.115
			c0.021,0,0.03-0.03,0.03-0.115v-4.347c0-1.364-1.154-0.968-1.154-1.312c0-0.072,0.053-0.104,0.114-0.104
			c0.312,0,0.613,0.042,0.946,0.042c0.354,0,0.802-0.042,1.051-0.042c0.062,0,0.104,0.031,0.104,0.094
			c0,0.271-0.614,0.083-0.614,0.842v6.024c0,0.301-0.01,0.446-0.094,0.446c-0.072,0-0.177-0.052-0.395-0.291l-4.474-5.034
			c-0.021-0.021-0.146-0.198-0.218-0.198c-0.041,0-0.072,0.031-0.072,0.24v4.253c0,0.938,0.915,0.573,0.915,0.854
			c0,0.051-0.011,0.136-0.115,0.136c-0.25,0-0.541-0.042-1.05-0.042c-0.364,0-0.906,0.042-0.979,0.042
			c-0.124,0-0.135-0.063-0.135-0.115c0-0.363,0.915,0.094,0.915-1.362V76.05z"/>
		<path d="M38.292,75.052c0-0.072,0.041-0.469-0.104-0.479h-1.695c-0.645,0-0.665,0.156-0.853,0.729
			c-0.032,0.104-0.043,0.239-0.178,0.239c-0.062,0-0.104-0.072-0.104-0.124l0.114-1.01c0.01-0.124,0-0.405,0.188-0.405
			c0.812,0,1.612,0.042,2.954,0.042c1.883,0,2.84-0.042,3.048-0.042c0.239,0,0.29,0.062,0.302,0.302l0.052,0.832
			c0.011,0.104,0.021,0.229-0.114,0.229c-0.385,0,0.177-0.791-0.884-0.791h-1.488c-0.468,0-0.416-0.041-0.416,0.511v5.305
			c0,0.874,0.843,0.53,0.843,0.853c0,0.032,0.011,0.126-0.094,0.126c-0.25,0-0.541-0.042-0.843-0.042
			c-1.164,0-1.362,0.042-1.425,0.042c-0.094,0-0.125-0.032-0.125-0.136c0-0.25,0.822-0.146,0.822-0.769V75.052z"/>
		<path d="M43.678,77.028c0,0.354-0.021,0.354,0.396,0.354h1.123c1.082,0,0.801-0.832,1.051-0.832c0.083,0,0.114,0.114,0.114,0.197
			c0,0.364-0.021,0.717-0.021,1.051c0,0.271,0.021,0.54,0.021,0.821c0,0.094-0.042,0.137-0.114,0.137
			c-0.322,0,0.031-0.917-0.843-0.917h-1.54c-0.218,0-0.187,0.177-0.187,0.333v1.915c0,0.613-0.084,0.863,0.79,0.863
			c2.403,0,2.758-1.072,2.893-1.072c0.072,0,0.083,0.104,0.083,0.124c0,0.375-0.271,0.739-0.521,1.01
			c-0.333,0.374-0.562,0.354-1.02,0.354c-0.791,0-1.582-0.063-2.371-0.042c-0.416,0.01-0.854,0.042-1.27,0.042
			c-0.094,0-0.155-0.021-0.155-0.104c0.021-0.125,0.124-0.104,0.457-0.271c0.271-0.124,0.29-0.416,0.29-0.904v-4.745
			c0-0.467,0-0.966-0.561-1.05c-0.084-0.021-0.312-0.042-0.312-0.166c0-0.083,0.062-0.125,0.365-0.125
			c1.966,0,2.506,0.042,2.942,0.042c0.209,0,1.165-0.042,1.488-0.042c0.083,0,0.104,0.104,0.104,0.229
			c0,1.154-0.146,1.237-0.208,1.237c-0.25,0-0.084-0.499-0.25-0.739c-0.271-0.353-1.353-0.291-1.77-0.291
			c-0.998,0-0.977-0.041-0.977,0.655V77.028z"/>
		<path d="M48.336,76.05c0-2.163-1.26-1.561-1.26-1.945c0-0.062,0.104-0.104,0.156-0.104c0.167,0,0.323,0.042,0.489,0.042
			c0.156,0,0.322-0.042,0.479-0.042c0.114,0,0.208,0.166,0.271,0.238l4.962,5.523c0.062,0.074,0.104,0.115,0.125,0.115
			c0.021,0,0.031-0.03,0.031-0.115v-4.347c0-1.364-1.154-0.968-1.154-1.312c0-0.072,0.052-0.104,0.113-0.104
			c0.313,0,0.614,0.042,0.947,0.042c0.354,0,0.802-0.042,1.051-0.042c0.062,0,0.104,0.031,0.104,0.094
			c0,0.271-0.613,0.083-0.613,0.842v6.024c0,0.301-0.011,0.446-0.094,0.446c-0.073,0-0.177-0.052-0.396-0.291l-4.473-5.034
			c-0.021-0.021-0.146-0.198-0.218-0.198c-0.042,0-0.074,0.031-0.074,0.24v4.253c0,0.938,0.915,0.573,0.915,0.854
			c0,0.051-0.009,0.136-0.113,0.136c-0.25,0-0.541-0.042-1.051-0.042c-0.365,0-0.905,0.042-0.978,0.042
			c-0.125,0-0.136-0.063-0.136-0.115c0-0.363,0.916,0.094,0.916-1.362V76.05z"/>
		<path d="M57.248,78.442c0.135-0.052,0.28-0.125,0.353-0.125c0.115,0,0.094,0.188,0.094,0.251c0,0.375,0.032,0.363-0.281,0.467
			l-1.58,0.562c-0.137,0.053-0.281,0.125-0.354,0.125c-0.114,0-0.094-0.166-0.094-0.229c0-0.396-0.03-0.385,0.281-0.489
			L57.248,78.442z"/>
		<path d="M61.845,73.096c0-0.096,0.055-0.613-0.137-0.628h-2.225c-0.846,0-0.874,0.205-1.119,0.956
			c-0.041,0.137-0.055,0.314-0.231,0.314c-0.082,0-0.137-0.097-0.137-0.164l0.15-1.324c0.014-0.164,0-0.532,0.245-0.532
			c1.065,0,2.116,0.055,3.876,0.055c2.47,0,3.725-0.055,3.998-0.055c0.314,0,0.382,0.082,0.396,0.396l0.067,1.092
			c0.015,0.135,0.027,0.299-0.149,0.299c-0.506,0,0.231-1.037-1.16-1.037h-1.952c-0.614,0-0.546-0.054-0.546,0.669v6.959
			c0,1.146,1.105,0.696,1.105,1.119c0,0.041,0.015,0.164-0.123,0.164c-0.326,0-0.709-0.055-1.104-0.055
			c-1.528,0-1.788,0.055-1.87,0.055c-0.122,0-0.163-0.041-0.163-0.178c0-0.327,1.078-0.191,1.078-1.009V73.096z"/>
		<path d="M69.38,78.88c-0.104-0.239-0.166-0.396-0.457-0.396h-2.289c-0.197,0-0.385,0-0.489,0.22l-0.665,1.456
			c-0.031,0.072-0.072,0.229-0.072,0.363c0,0.729,0.737,0.417,0.737,0.688c0,0.187-0.146,0.156-0.279,0.156
			c-0.293,0-0.584-0.042-0.876-0.042c-0.279,0-0.561,0.042-0.832,0.042c-0.062,0-0.092-0.052-0.092-0.115
			c0-0.218,0.488-0.041,0.758-0.635l2.486-5.305c0.614-1.311,0.646-1.478,0.78-1.478c0.115,0,0.188,0.303,0.22,0.385l2.162,5.358
			c0.157,0.384,0.281,0.821,0.521,1.186c0.312,0.478,0.916,0.249,0.916,0.51c0,0.094-0.073,0.094-0.146,0.094
			c-0.426,0-0.853-0.042-1.279-0.042c-0.28,0-0.562,0.042-0.842,0.042c-0.063,0-0.23,0-0.23-0.104c0-0.25,0.625-0.146,0.625-0.541
			c0-0.229-0.218-0.707-0.322-0.988L69.38,78.88z M66.571,77.839c-0.072,0.146,0,0.188,0.135,0.188h2.06
			c0.23,0,0.219-0.072,0.167-0.208l-1.02-2.507c-0.052-0.125-0.104-0.125-0.166,0L66.571,77.839z"/>
		<path d="M77.824,77.496c0.084,0,0.28-0.041,0.28,0.094c0,0.219-0.529-0.021-0.529,0.676v2.122
			c-1.072,0.344-1.353,1.051-3.205,1.051c-2.298,0-3.724-1.425-3.724-3.734c0-2.247,1.686-3.797,3.892-3.797
			c1.8,0,2.318,0.707,2.61,0.707c0.113,0,0.156-0.188,0.271-0.188c0.146,0,0.104,0.156,0.114,0.239l0.104,1.364
			c0,0.082-0.01,0.187-0.113,0.187c-0.271,0-0.739-2.008-3.194-2.008c-1.872,0-2.81,1.581-2.81,3.298
			c0,1.842,1.062,3.599,3.07,3.599c0.946,0,2.163-0.468,2.163-1.352v-1.613c0-0.489-0.905-0.271-0.905-0.53
			c0-0.136,0.146-0.114,0.239-0.114H77.824z"/>
		<path d="M79.048,79.524c-0.041-0.208,0.011-0.322,0.115-0.322c0.145,0,0.145,0.125,0.197,0.343
			c0.125,0.479,0.749,1.561,2.185,1.561c0.989,0,1.955-0.552,1.955-1.644c0-2.007-4.223-0.885-4.223-3.599
			c0-1.321,1.112-1.956,2.31-1.956c1.259,0,1.602,0.375,1.747,0.375c0.094,0,0.115-0.115,0.219-0.115
			c0.062,0,0.114,0.03,0.125,0.146l0.155,1.415c0.011,0.083-0.011,0.156-0.113,0.156c-0.115,0-0.188-0.218-0.22-0.312
			c-0.312-0.896-1.07-1.354-1.985-1.354c-0.823,0-1.697,0.396-1.697,1.354c0,1.955,4.225,0.811,4.225,3.682
			c0,0.874-0.614,2.185-2.976,2.185c-0.77,0-1.716-0.384-1.759-0.571L79.048,79.524z"/>
		<path d="M86.484,78.442c0.135-0.052,0.28-0.125,0.354-0.125c0.114,0,0.095,0.188,0.095,0.251c0,0.375,0.03,0.363-0.281,0.467
			l-1.582,0.562c-0.135,0.053-0.281,0.125-0.354,0.125c-0.115,0-0.094-0.166-0.094-0.229c0-0.396-0.031-0.385,0.281-0.489
			L86.484,78.442z"/>
		<path d="M94.205,78.118c-0.136-0.314-0.218-0.52-0.6-0.52h-3.002c-0.259,0-0.505,0-0.641,0.287l-0.875,1.91
			c-0.041,0.095-0.095,0.3-0.095,0.477c0,0.956,0.97,0.546,0.97,0.901c0,0.246-0.192,0.205-0.369,0.205
			c-0.383,0-0.765-0.055-1.146-0.055c-0.369,0-0.737,0.055-1.092,0.055c-0.081,0-0.123-0.069-0.123-0.15
			c0-0.287,0.642-0.055,0.997-0.833l3.261-6.958c0.805-1.72,0.846-1.938,1.023-1.938c0.149,0,0.246,0.396,0.287,0.505l2.838,7.027
			c0.204,0.505,0.367,1.078,0.682,1.556c0.41,0.627,1.201,0.327,1.201,0.668c0,0.123-0.096,0.123-0.191,0.123
			c-0.559,0-1.119-0.055-1.678-0.055c-0.369,0-0.737,0.055-1.106,0.055c-0.082,0-0.3,0-0.3-0.137c0-0.327,0.819-0.191,0.819-0.709
			c0-0.302-0.287-0.929-0.423-1.297L94.205,78.118z M90.521,76.753c-0.095,0.191,0,0.245,0.177,0.245H93.4
			c0.3,0,0.287-0.095,0.219-0.272l-1.337-3.288c-0.069-0.163-0.137-0.163-0.219,0L90.521,76.753z"/>
		<path d="M98.365,75.113c0-1.062-0.854-0.729-0.854-1.009c0-0.072,0.083-0.104,0.146-0.104c0.321,0,0.623,0.042,0.936,0.042
			c0.687,0,1.363-0.042,2.258-0.042c1.841,0,3.65,1.394,3.65,3.318c0,2.393-1.133,4.047-4.016,4.047
			c-0.529,0-1.06-0.042-1.591-0.042c-0.094,0-1.092,0.042-1.165,0.042c-0.084,0-0.104-0.042-0.104-0.104
			c0-0.239,0.738,0.02,0.738-0.968V75.113z M99.187,79.856c0,0.167-0.031,0.666,0.062,0.76c0.343,0.345,1.134,0.469,1.603,0.469
			c1.478,0,2.881-0.791,2.881-3.194c0-2.309-1.54-3.619-3.516-3.63c-0.988,0-1.03,0.166-1.03,0.655V79.856z"/>
		<path d="M105.145,74.802c-0.261-0.624-0.801-0.426-0.801-0.656c0-0.094,0.052-0.145,0.146-0.145c0.322,0,0.645,0.042,0.957,0.042
			c0.28,0,0.677-0.042,0.821-0.042c0.062,0,0.146,0.042,0.146,0.104c0.011,0.146-0.427,0.156-0.427,0.531
			c0,0.146,0.053,0.312,0.094,0.405l1.821,4.286c0.229,0.551,0.301,0.79,0.416,0.79c0.104,0,0.135-0.167,0.188-0.291l1.811-4.463
			c0.062-0.156,0.188-0.488,0.145-0.706c0-0.479-0.665-0.281-0.665-0.521c0-0.104,0.052-0.136,0.156-0.136
			c0.229,0,0.458,0.042,0.687,0.042c0.498,0,0.654-0.042,0.8-0.042c0.115,0,0.177,0.042,0.177,0.136c0,0.229-0.29-0.032-0.582,0.665
			l-2.59,6.127c-0.114,0.261-0.188,0.604-0.344,0.604c-0.167,0-0.291-0.437-0.385-0.656L105.145,74.802z"/>
		<path d="M113.256,77.028c0,0.354-0.022,0.354,0.396,0.354h1.122c1.083,0,0.802-0.832,1.051-0.832c0.084,0,0.115,0.114,0.115,0.197
			c0,0.364-0.021,0.717-0.021,1.051c0,0.271,0.021,0.54,0.021,0.821c0,0.094-0.042,0.137-0.115,0.137
			c-0.322,0,0.032-0.917-0.842-0.917h-1.54c-0.219,0-0.187,0.177-0.187,0.333v1.915c0,0.613-0.084,0.863,0.79,0.863
			c2.403,0,2.756-1.072,2.892-1.072c0.073,0,0.083,0.104,0.083,0.124c0,0.375-0.271,0.739-0.519,1.01
			c-0.334,0.374-0.562,0.354-1.021,0.354c-0.79,0-1.581-0.063-2.372-0.042c-0.416,0.01-0.853,0.042-1.269,0.042
			c-0.094,0-0.157-0.021-0.157-0.104c0.022-0.125,0.125-0.104,0.459-0.271c0.27-0.124,0.291-0.416,0.291-0.904v-4.745
			c0-0.467,0-0.966-0.562-1.05c-0.084-0.021-0.312-0.042-0.312-0.166c0-0.083,0.063-0.125,0.364-0.125
			c1.966,0,2.508,0.042,2.944,0.042c0.208,0,1.165-0.042,1.487-0.042c0.083,0,0.104,0.104,0.104,0.229
			c0,1.154-0.146,1.237-0.209,1.237c-0.25,0-0.083-0.499-0.25-0.739c-0.271-0.353-1.352-0.291-1.768-0.291
			c-1,0-0.978-0.041-0.978,0.655V77.028z"/>
		<path d="M117.914,76.05c0-2.163-1.259-1.561-1.259-1.945c0-0.062,0.104-0.104,0.156-0.104c0.166,0,0.322,0.042,0.488,0.042
			c0.155,0,0.322-0.042,0.478-0.042c0.115,0,0.209,0.166,0.271,0.238l4.962,5.523c0.062,0.074,0.104,0.115,0.125,0.115
			c0.021,0,0.031-0.03,0.031-0.115v-4.347c0-1.364-1.154-0.968-1.154-1.312c0-0.072,0.051-0.104,0.113-0.104
			c0.312,0,0.614,0.042,0.947,0.042c0.354,0,0.801-0.042,1.051-0.042c0.062,0,0.104,0.031,0.104,0.094
			c0,0.271-0.614,0.083-0.614,0.842v6.024c0,0.301-0.011,0.446-0.094,0.446c-0.073,0-0.177-0.052-0.396-0.291l-4.472-5.034
			c-0.021-0.021-0.146-0.198-0.22-0.198c-0.041,0-0.071,0.031-0.071,0.24v4.253c0,0.938,0.915,0.573,0.915,0.854
			c0,0.051-0.011,0.136-0.115,0.136c-0.249,0-0.54-0.042-1.051-0.042c-0.364,0-0.904,0.042-0.977,0.042
			c-0.126,0-0.137-0.063-0.137-0.115c0-0.363,0.917,0.094,0.917-1.362V76.05z"/>
		<path d="M127.43,75.052c0-0.072,0.041-0.469-0.104-0.479h-1.695c-0.645,0-0.666,0.156-0.854,0.729
			c-0.031,0.104-0.042,0.239-0.177,0.239c-0.062,0-0.104-0.072-0.104-0.124l0.115-1.01c0.009-0.124,0-0.405,0.186-0.405
			c0.812,0,1.614,0.042,2.955,0.042c1.884,0,2.84-0.042,3.048-0.042c0.239,0,0.292,0.062,0.303,0.302l0.052,0.832
			c0.01,0.104,0.021,0.229-0.115,0.229c-0.386,0,0.177-0.791-0.884-0.791h-1.487c-0.469,0-0.416-0.041-0.416,0.511v5.305
			c0,0.874,0.842,0.53,0.842,0.853c0,0.032,0.011,0.126-0.094,0.126c-0.249,0-0.541-0.042-0.842-0.042
			c-1.166,0-1.363,0.042-1.425,0.042c-0.094,0-0.126-0.032-0.126-0.136c0-0.25,0.823-0.146,0.823-0.769V75.052z"/>
		<path d="M132.189,74.896c-0.009-0.759-0.842-0.552-0.842-0.78c0-0.094,0.021-0.114,0.104-0.114c0.385,0,0.759,0.042,1.145,0.042
			c0.322,0,0.645-0.042,0.968-0.042c0.165,0,0.196,0.021,0.196,0.104c0,0.25-0.748,0.011-0.748,0.791v5.586
			c0,0.708,0.926,0.469,0.926,0.78c0,0.072-0.032,0.104-0.209,0.104c-0.239,0-0.687-0.042-1.133-0.042
			c-0.636,0-0.854,0.042-0.998,0.042c-0.189,0-0.22-0.052-0.22-0.156c0-0.302,0.811,0.041,0.811-0.987V74.896z"/>
		<path d="M134.321,79.524c-0.042-0.208,0.011-0.322,0.115-0.322c0.145,0,0.145,0.125,0.197,0.343
			c0.124,0.479,0.749,1.561,2.185,1.561c0.987,0,1.955-0.552,1.955-1.644c0-2.007-4.223-0.885-4.223-3.599
			c0-1.321,1.112-1.956,2.31-1.956c1.257,0,1.602,0.375,1.747,0.375c0.094,0,0.115-0.115,0.219-0.115
			c0.062,0,0.114,0.03,0.125,0.146l0.155,1.415c0.011,0.083-0.01,0.156-0.113,0.156c-0.115,0-0.188-0.218-0.22-0.312
			c-0.312-0.896-1.07-1.354-1.987-1.354c-0.821,0-1.695,0.396-1.695,1.354c0,1.955,4.225,0.811,4.225,3.682
			c0,0.874-0.614,2.185-2.977,2.185c-0.769,0-1.715-0.384-1.758-0.571L134.321,79.524z"/>
		<path d="M142.36,75.052c0-0.072,0.041-0.469-0.104-0.479h-1.695c-0.645,0-0.665,0.156-0.853,0.729
			c-0.032,0.104-0.041,0.239-0.178,0.239c-0.062,0-0.104-0.072-0.104-0.124l0.114-1.01c0.011-0.124,0-0.405,0.188-0.405
			c0.811,0,1.612,0.042,2.954,0.042c1.884,0,2.84-0.042,3.049-0.042c0.239,0,0.291,0.062,0.301,0.302l0.052,0.832
			c0.011,0.104,0.021,0.229-0.113,0.229c-0.386,0,0.176-0.791-0.885-0.791h-1.487c-0.469,0-0.416-0.041-0.416,0.511v5.305
			c0,0.874,0.843,0.53,0.843,0.853c0,0.032,0.011,0.126-0.094,0.126c-0.251,0-0.541-0.042-0.844-0.042
			c-1.164,0-1.362,0.042-1.425,0.042c-0.094,0-0.124-0.032-0.124-0.136c0-0.25,0.821-0.146,0.821-0.769V75.052z"/>
		<path d="M147.747,77.028c0,0.354-0.021,0.354,0.395,0.354h1.124c1.081,0,0.801-0.832,1.051-0.832c0.083,0,0.113,0.114,0.113,0.197
			c0,0.364-0.021,0.717-0.021,1.051c0,0.271,0.021,0.54,0.021,0.821c0,0.094-0.041,0.137-0.113,0.137
			c-0.322,0,0.03-0.917-0.843-0.917h-1.539c-0.22,0-0.188,0.177-0.188,0.333v1.915c0,0.613-0.083,0.863,0.789,0.863
			c2.403,0,2.758-1.072,2.894-1.072c0.072,0,0.083,0.104,0.083,0.124c0,0.375-0.271,0.739-0.521,1.01
			c-0.333,0.374-0.562,0.354-1.021,0.354c-0.79,0-1.58-0.063-2.37-0.042c-0.417,0.01-0.854,0.042-1.271,0.042
			c-0.094,0-0.155-0.021-0.155-0.104c0.021-0.125,0.124-0.104,0.458-0.271c0.271-0.124,0.29-0.416,0.29-0.904v-4.745
			c0-0.467,0-0.966-0.561-1.05c-0.084-0.021-0.312-0.042-0.312-0.166c0-0.083,0.062-0.125,0.362-0.125
			c1.968,0,2.508,0.042,2.945,0.042c0.208,0,1.164-0.042,1.487-0.042c0.082,0,0.104,0.104,0.104,0.229
			c0,1.154-0.146,1.237-0.207,1.237c-0.25,0-0.084-0.499-0.25-0.739c-0.271-0.353-1.352-0.291-1.77-0.291
			c-0.998,0-0.977-0.041-0.977,0.655V77.028z"/>
		<path d="M152.404,76.05c0-2.163-1.259-1.561-1.259-1.945c0-0.062,0.104-0.104,0.156-0.104c0.166,0,0.322,0.042,0.49,0.042
			c0.154,0,0.321-0.042,0.478-0.042c0.115,0,0.207,0.166,0.271,0.238l4.963,5.523c0.061,0.074,0.103,0.115,0.124,0.115
			c0.021,0,0.031-0.03,0.031-0.115v-4.347c0-1.364-1.155-0.968-1.155-1.312c0-0.072,0.052-0.104,0.113-0.104
			c0.313,0,0.615,0.042,0.947,0.042c0.354,0,0.802-0.042,1.052-0.042c0.062,0,0.104,0.031,0.104,0.094
			c0,0.271-0.614,0.083-0.614,0.842v6.024c0,0.301-0.009,0.446-0.094,0.446c-0.072,0-0.177-0.052-0.395-0.291l-4.474-5.034
			c-0.02-0.021-0.146-0.198-0.218-0.198c-0.042,0-0.073,0.031-0.073,0.24v4.253c0,0.938,0.915,0.573,0.915,0.854
			c0,0.051-0.01,0.136-0.113,0.136c-0.249,0-0.541-0.042-1.051-0.042c-0.364,0-0.904,0.042-0.979,0.042
			c-0.125,0-0.135-0.063-0.135-0.115c0-0.363,0.915,0.094,0.915-1.362V76.05z"/>
	</g>
	<g>
		<path d="M25.552,89.641c0.54,0,0.743,0.141,0.908,0.318c0.184,0.202,0.258,0.496,0.258,0.748c0,0.447-0.184,0.89-0.669,1.184
			c0.276,0.141,0.423,0.478,0.423,0.87c0,0.325-0.146,0.772-0.452,1.061c-0.295,0.282-0.779,0.441-1.251,0.441h-0.92l0.729-4.622
			H25.552z M24.884,93.496h0.032c0.208,0,0.367-0.085,0.483-0.232c0.123-0.153,0.179-0.381,0.179-0.534
			c0-0.287-0.173-0.49-0.497-0.49L24.884,93.496z M25.375,90.407l-0.186,1.127c0.389,0,0.65-0.3,0.65-0.698
			c0-0.264-0.141-0.429-0.435-0.429H25.375z"/>
		<path d="M29.39,91.547l0.062-0.381h0.864l-0.49,3.097h-0.864l0.056-0.349h-0.013c-0.171,0.27-0.387,0.41-0.639,0.41
			c-0.41,0-0.624-0.38-0.624-1.109c0-0.362,0.092-0.926,0.294-1.397c0.202-0.473,0.502-0.712,0.834-0.712
			c0.288,0,0.453,0.189,0.509,0.441H29.39z M29.176,93.093c0.092-0.296,0.128-0.577,0.128-0.767c0-0.265-0.048-0.454-0.214-0.454
			c-0.141,0-0.257,0.147-0.35,0.441c-0.087,0.288-0.129,0.546-0.129,0.772c0,0.27,0.061,0.447,0.228,0.447
			C28.967,93.533,29.09,93.387,29.176,93.093"/>
		<path d="M34.184,89.315l-0.784,4.947h-0.865l0.055-0.349h-0.012c-0.172,0.27-0.392,0.41-0.638,0.41
			c-0.41,0-0.625-0.38-0.625-1.109c0-0.398,0.093-0.926,0.294-1.397c0.203-0.473,0.503-0.712,0.834-0.712
			c0.287,0,0.454,0.189,0.509,0.441h0.013l0.355-2.231H34.184z M32.749,93.093c0.092-0.296,0.129-0.577,0.129-0.767
			c0-0.265-0.056-0.454-0.221-0.454c-0.129,0-0.252,0.147-0.344,0.441c-0.086,0.288-0.128,0.546-0.128,0.772
			c0,0.27,0.067,0.447,0.22,0.447C32.541,93.533,32.663,93.387,32.749,93.093"/>
		<path d="M37.162,92.614c-0.036,0.164-0.061,0.275-0.066,0.331h-1.367c-0.03,0.238-0.03,0.25-0.03,0.343
			c0,0.239,0.066,0.374,0.244,0.374c0.221,0,0.295-0.159,0.332-0.356h0.734c-0.207,0.693-0.588,1.019-1.146,1.019
			c-0.639,0-0.975-0.416-0.975-1.146c0-0.466,0.135-0.999,0.397-1.428c0.27-0.437,0.656-0.645,1.074-0.645
			c0.521,0,0.857,0.398,0.857,1.036C37.218,92.283,37.2,92.442,37.162,92.614 M36.451,92.412c0.024-0.142,0.03-0.203,0.03-0.276
			c0-0.227-0.079-0.368-0.244-0.368c-0.215,0-0.374,0.252-0.418,0.645H36.451z"/>
		<path d="M40.736,91.989l-0.362,2.273h-0.863c0.288-1.833,0.318-1.913,0.318-2.048c0-0.129-0.03-0.239-0.171-0.239
			c-0.198,0-0.258,0.185-0.288,0.362l-0.307,1.925h-0.865l0.49-3.097h0.864l-0.073,0.479h0.013c0.166-0.294,0.459-0.54,0.803-0.54
			c0.361,0,0.472,0.228,0.472,0.564C40.767,91.731,40.761,91.847,40.736,91.989"/>
		<polygon points="43.629,91.829 43.5,92.645 41.968,92.645 42.097,91.829 		"/>
		<path d="M46.007,89.641c0.043,2.023,0.043,2.341,0.043,2.36c0,0.258-0.036,0.49-0.055,0.827h0.012
			c0.062-0.214,0.111-0.386,0.143-0.515c0.035-0.129,0.085-0.288,0.146-0.467l0.81-2.206h0.724l0.085,3.188h0.013
			c0.092-0.367,0.135-0.619,0.245-0.962l0.711-2.226h0.958l-1.687,4.622h-0.792c-0.03-0.778-0.08-2.139-0.08-2.329v-0.957H47.27
			c-0.066,0.208-0.141,0.474-0.201,0.632l-0.994,2.654h-0.796l-0.202-4.622H46.007z"/>
		<path d="M51.451,91.166c-0.282,1.847-0.331,1.963-0.331,2.128c0,0.11,0.049,0.222,0.178,0.222c0.11,0,0.227-0.055,0.281-0.405
			l0.313-1.944h0.858l-0.312,1.976c-0.117,0.71-0.527,1.183-1.294,1.183c-0.632,0-0.896-0.319-0.896-0.809
			c0-0.32,0.044-0.479,0.338-2.35H51.451z M51.113,90.67c-0.221,0-0.392-0.172-0.392-0.373c0-0.288,0.251-0.54,0.546-0.54
			c0.228,0,0.38,0.172,0.38,0.386C51.647,90.419,51.401,90.67,51.113,90.67 M52.389,90.67c-0.221,0-0.393-0.172-0.393-0.373
			c0-0.288,0.252-0.54,0.546-0.54c0.227,0,0.38,0.172,0.38,0.386C52.922,90.419,52.677,90.67,52.389,90.67"/>
		<path d="M55.564,91.891c-0.074-0.012-0.142-0.012-0.167-0.012c-0.165,0-0.317,0.055-0.409,0.134
			c-0.11,0.098-0.197,0.234-0.264,0.663l-0.252,1.587h-0.864l0.49-3.097h0.864l-0.061,0.375h0.012c0.203-0.27,0.44-0.46,0.785-0.491
			L55.564,91.891z"/>
		<polygon points="58.219,90.309 58.084,91.166 58.438,91.166 58.328,91.879 57.973,91.879 57.593,94.263 56.728,94.263 
			57.108,91.879 56.808,91.879 56.919,91.166 57.219,91.166 57.354,90.309 		"/>
		<polygon points="61.031,90.309 60.896,91.166 61.253,91.166 61.143,91.879 60.787,91.879 60.406,94.263 59.542,94.263 
			59.922,91.879 59.622,91.879 59.732,91.166 60.032,91.166 60.168,90.309 		"/>
		<path d="M64.501,92.614c-0.036,0.164-0.061,0.275-0.068,0.331h-1.366c-0.03,0.238-0.03,0.25-0.03,0.343
			c0,0.239,0.067,0.374,0.245,0.374c0.222,0,0.294-0.159,0.332-0.356h0.735c-0.209,0.693-0.588,1.019-1.147,1.019
			c-0.638,0-0.975-0.416-0.975-1.146c0-0.466,0.135-0.999,0.399-1.428c0.269-0.437,0.655-0.645,1.072-0.645
			c0.521,0,0.859,0.398,0.859,1.036C64.558,92.283,64.538,92.442,64.501,92.614 M63.79,92.412c0.024-0.142,0.031-0.203,0.031-0.276
			c0-0.227-0.079-0.368-0.246-0.368c-0.214,0-0.374,0.252-0.417,0.645H63.79z"/>
		<path d="M68.143,91.633c0.196-0.288,0.497-0.527,0.828-0.527c0.325,0,0.447,0.216,0.447,0.54c0,0.159-0.031,0.355-0.393,2.617
			h-0.864c0.257-1.716,0.312-1.87,0.312-2.041c0-0.142-0.036-0.252-0.165-0.252c-0.153,0-0.25,0.129-0.282,0.325l-0.312,1.968H66.85
			c0.294-1.833,0.318-1.974,0.318-2.065c0-0.117-0.038-0.216-0.159-0.216c-0.173,0-0.265,0.111-0.308,0.387l-0.3,1.895h-0.864
			l0.49-3.097h0.864l-0.073,0.498h0.012c0.196-0.301,0.485-0.559,0.853-0.559c0.319,0,0.447,0.239,0.447,0.527H68.143z"/>
		<path d="M72.022,89.315l-0.355,2.231h0.012c0.167-0.288,0.398-0.441,0.65-0.441c0.393,0,0.625,0.312,0.625,1.005
			c0,0.467-0.128,1.1-0.343,1.546c-0.214,0.447-0.484,0.668-0.804,0.668c-0.288,0-0.429-0.171-0.503-0.41h-0.013l-0.054,0.349
			h-0.864l0.785-4.947H72.022z M71.942,93.104c0.093-0.288,0.129-0.619,0.129-0.785c0-0.251-0.055-0.447-0.208-0.447
			c-0.141,0-0.258,0.153-0.344,0.417c-0.092,0.276-0.129,0.552-0.129,0.766c0,0.296,0.049,0.479,0.203,0.479
			C71.734,93.533,71.852,93.393,71.942,93.104"/>
		<path d="M76.368,92.614c-0.036,0.164-0.061,0.275-0.066,0.331h-1.368c-0.03,0.238-0.03,0.25-0.03,0.343
			c0,0.239,0.068,0.374,0.245,0.374c0.222,0,0.294-0.159,0.332-0.356h0.735c-0.209,0.693-0.59,1.019-1.146,1.019
			c-0.639,0-0.976-0.416-0.976-1.146c0-0.466,0.134-0.999,0.397-1.428c0.271-0.437,0.656-0.645,1.073-0.645
			c0.521,0,0.859,0.398,0.859,1.036C76.425,92.283,76.405,92.442,76.368,92.614 M75.658,92.412c0.024-0.142,0.03-0.203,0.03-0.276
			c0-0.227-0.08-0.368-0.246-0.368c-0.214,0-0.372,0.252-0.417,0.645H75.658z"/>
		<path d="M79.359,91.891c-0.072-0.012-0.141-0.012-0.165-0.012c-0.166,0-0.318,0.055-0.41,0.134
			c-0.111,0.098-0.197,0.234-0.265,0.663l-0.251,1.587h-0.864l0.49-3.097h0.865l-0.062,0.375h0.012
			c0.203-0.27,0.443-0.46,0.786-0.491L79.359,91.891z"/>
		<path d="M81.922,91.541l0.062-0.375h0.864l-0.527,3.336c-0.165,1.043-0.705,1.3-1.367,1.3c-0.588,0-0.95-0.27-0.95-0.938
			c0-0.057,0.007-0.166,0.013-0.191h0.767c-0.006,0.068-0.006,0.086-0.006,0.123c0,0.209,0.099,0.319,0.251,0.319
			c0.22,0,0.361-0.196,0.43-0.596c0.061-0.398,0.097-0.611,0.097-0.644h-0.012c-0.172,0.277-0.373,0.448-0.631,0.448
			c-0.423,0-0.662-0.479-0.662-1.03c0-0.747,0.318-2.188,1.14-2.188c0.288,0,0.466,0.189,0.521,0.436H81.922z M81.817,92.302
			c0-0.264-0.061-0.43-0.202-0.43c-0.342,0-0.49,0.864-0.49,1.196c0,0.264,0.05,0.465,0.239,0.465
			C81.659,93.533,81.817,92.699,81.817,92.302"/>
		<path d="M85.056,91.166l-0.491,3.097h-0.866l0.492-3.097H85.056z M84.675,90.799c-0.275,0-0.461-0.209-0.461-0.46
			c0-0.354,0.301-0.644,0.656-0.644c0.276,0,0.455,0.227,0.455,0.473C85.325,90.498,85.006,90.799,84.675,90.799"/>
		<path d="M87.819,92.001c-0.104-0.116-0.203-0.202-0.381-0.202c-0.171,0-0.27,0.11-0.27,0.27c0,0.116,0.147,0.19,0.387,0.324
			c0.281,0.16,0.417,0.368,0.417,0.656c0,0.693-0.485,1.275-1.178,1.275c-0.337,0-0.65-0.141-0.87-0.355l0.472-0.613
			c0.116,0.117,0.227,0.202,0.398,0.202c0.215,0,0.301-0.202,0.301-0.287c0-0.147-0.135-0.228-0.355-0.356
			c-0.288-0.166-0.455-0.375-0.455-0.717c0-0.606,0.491-1.092,1.202-1.092c0.424,0,0.67,0.159,0.785,0.265L87.819,92.001z"/>
		<path d="M91.073,91.958c-0.072-0.073-0.134-0.098-0.239-0.098c-0.201,0-0.36,0.109-0.483,0.337
			c-0.122,0.228-0.185,0.496-0.185,0.809c0,0.318,0.123,0.51,0.393,0.51c0.099,0,0.19-0.037,0.282-0.093l-0.129,0.791
			c-0.172,0.074-0.343,0.11-0.516,0.11c-0.595,0-0.912-0.454-0.912-1.189c0-0.447,0.128-0.986,0.398-1.397
			c0.275-0.424,0.662-0.632,1.097-0.632c0.178,0,0.282,0.036,0.411,0.093L91.073,91.958z"/>
		<path d="M93.63,89.315l-0.368,2.33h0.013c0.166-0.294,0.46-0.54,0.803-0.54c0.362,0,0.473,0.228,0.473,0.564
			c0,0.062-0.006,0.165-0.032,0.306l-0.36,2.287h-0.865l0.264-1.661c0.025-0.165,0.056-0.264,0.056-0.387
			c0-0.129-0.03-0.239-0.171-0.239c-0.19,0-0.258,0.185-0.289,0.362l-0.307,1.925H91.98l0.785-4.947H93.63z"/>
		<path d="M97.921,92.614c-0.036,0.164-0.062,0.275-0.067,0.331h-1.367c-0.03,0.238-0.03,0.25-0.03,0.343
			c0,0.239,0.066,0.374,0.245,0.374c0.222,0,0.294-0.159,0.331-0.356h0.736c-0.209,0.693-0.59,1.019-1.147,1.019
			c-0.638,0-0.975-0.416-0.975-1.146c0-0.466,0.135-0.999,0.398-1.428c0.27-0.437,0.656-0.645,1.073-0.645
			c0.521,0,0.857,0.398,0.857,1.036C97.976,92.283,97.958,92.442,97.921,92.614 M97.21,92.412c0.024-0.142,0.031-0.203,0.031-0.276
			c0-0.227-0.081-0.368-0.246-0.368c-0.215,0-0.374,0.252-0.417,0.645H97.21z"/>
		<path d="M102.812,89.641c0.074,0.785,0.135,1.558,0.215,2.329c0.024,0.228,0.012,0.448,0.03,0.68h0.012
			c0.087-0.263,0.153-0.545,0.276-0.832l0.896-2.177h0.956l-2.011,4.622h-0.749l-0.605-4.622H102.812z"/>
		<path d="M107.667,92.614c-0.036,0.164-0.061,0.275-0.066,0.331h-1.368c-0.03,0.238-0.03,0.25-0.03,0.343
			c0,0.239,0.068,0.374,0.245,0.374c0.221,0,0.294-0.159,0.332-0.356h0.735c-0.208,0.693-0.589,1.019-1.147,1.019
			c-0.637,0-0.975-0.416-0.975-1.146c0-0.466,0.135-0.999,0.398-1.428c0.27-0.437,0.656-0.645,1.073-0.645
			c0.521,0,0.859,0.398,0.859,1.036C107.724,92.283,107.704,92.442,107.667,92.614 M106.957,92.412
			c0.023-0.142,0.03-0.203,0.03-0.276c0-0.227-0.079-0.368-0.246-0.368c-0.214,0-0.374,0.252-0.417,0.645H106.957z"/>
		<path d="M110.658,91.891c-0.073-0.012-0.142-0.012-0.165-0.012c-0.166,0-0.318,0.055-0.411,0.134
			c-0.11,0.098-0.195,0.234-0.264,0.663l-0.251,1.587h-0.864l0.489-3.097h0.865l-0.062,0.375h0.012
			c0.203-0.27,0.442-0.46,0.785-0.491L110.658,91.891z"/>
		<path d="M113.828,92.614c-0.038,0.164-0.062,0.275-0.068,0.331h-1.366c-0.03,0.238-0.03,0.25-0.03,0.343
			c0,0.239,0.066,0.374,0.245,0.374c0.22,0,0.294-0.159,0.33-0.356h0.736c-0.209,0.693-0.589,1.019-1.146,1.019
			c-0.639,0-0.975-0.416-0.975-1.146c0-0.466,0.135-0.999,0.398-1.428c0.27-0.437,0.656-0.645,1.072-0.645
			c0.521,0,0.858,0.398,0.858,1.036C113.883,92.283,113.864,92.442,113.828,92.614 M113.116,92.412
			c0.025-0.142,0.031-0.203,0.031-0.276c0-0.227-0.08-0.368-0.245-0.368c-0.216,0-0.374,0.252-0.417,0.645H113.116z"/>
		<path d="M116.212,91.166l-0.49,3.097h-0.865l0.491-3.097H116.212z M115.832,90.799c-0.275,0-0.46-0.209-0.46-0.46
			c0-0.354,0.3-0.644,0.656-0.644c0.275,0,0.453,0.227,0.453,0.473C116.481,90.498,116.163,90.799,115.832,90.799"/>
		<path d="M119.603,91.989l-0.362,2.273h-0.865c0.289-1.833,0.32-1.913,0.32-2.048c0-0.129-0.031-0.239-0.174-0.239
			c-0.194,0-0.256,0.185-0.287,0.362l-0.307,1.925h-0.864l0.49-3.097h0.865l-0.074,0.479h0.013c0.164-0.294,0.46-0.54,0.803-0.54
			c0.362,0,0.473,0.228,0.473,0.564C119.633,91.731,119.626,91.847,119.603,91.989"/>
		<path d="M121.932,91.166l-0.491,3.097h-0.864l0.49-3.097H121.932z M121.551,90.799c-0.275,0-0.459-0.209-0.459-0.46
			c0-0.354,0.3-0.644,0.654-0.644c0.276,0,0.455,0.227,0.455,0.473C122.201,90.498,121.882,90.799,121.551,90.799"/>
		<path d="M124.598,91.541l0.062-0.375h0.863l-0.525,3.336c-0.167,1.043-0.706,1.3-1.369,1.3c-0.588,0-0.949-0.27-0.949-0.938
			c0-0.057,0.006-0.166,0.012-0.191h0.767c-0.006,0.068-0.006,0.086-0.006,0.123c0,0.209,0.099,0.319,0.252,0.319
			c0.221,0,0.361-0.196,0.429-0.596c0.062-0.398,0.098-0.611,0.098-0.644h-0.013c-0.172,0.277-0.373,0.448-0.631,0.448
			c-0.423,0-0.662-0.479-0.662-1.03c0-0.747,0.318-2.188,1.141-2.188c0.288,0,0.466,0.189,0.521,0.436H124.598z M124.493,92.302
			c0-0.264-0.062-0.43-0.202-0.43c-0.343,0-0.49,0.864-0.49,1.196c0,0.264,0.049,0.465,0.238,0.465
			C124.334,93.533,124.493,92.699,124.493,92.302"/>
		<path d="M127.736,91.166c-0.282,1.847-0.332,1.963-0.332,2.128c0,0.11,0.05,0.222,0.179,0.222c0.109,0,0.226-0.055,0.282-0.405
			l0.312-1.944h0.858l-0.312,1.976c-0.116,0.71-0.527,1.183-1.293,1.183c-0.632,0-0.896-0.319-0.896-0.809
			c0-0.32,0.043-0.479,0.337-2.35H127.736z"/>
		<path d="M132.432,91.989l-0.362,2.273h-0.863c0.288-1.833,0.318-1.913,0.318-2.048c0-0.129-0.03-0.239-0.172-0.239
			c-0.196,0-0.257,0.185-0.289,0.362l-0.306,1.925h-0.864l0.491-3.097h0.864l-0.075,0.479h0.013c0.166-0.294,0.461-0.54,0.804-0.54
			c0.362,0,0.473,0.228,0.473,0.564C132.463,91.731,132.456,91.847,132.432,91.989"/>
		<path d="M135.226,91.541l0.062-0.375h0.863l-0.526,3.336c-0.165,1.043-0.705,1.3-1.367,1.3c-0.588,0-0.95-0.27-0.95-0.938
			c0-0.057,0.006-0.166,0.013-0.191h0.767c-0.007,0.068-0.007,0.086-0.007,0.123c0,0.209,0.099,0.319,0.251,0.319
			c0.221,0,0.361-0.196,0.43-0.596c0.061-0.398,0.099-0.611,0.099-0.644h-0.014c-0.171,0.277-0.373,0.448-0.631,0.448
			c-0.423,0-0.662-0.479-0.662-1.03c0-0.747,0.318-2.188,1.14-2.188c0.29,0,0.467,0.189,0.521,0.436H135.226z M135.123,92.302
			c0-0.264-0.062-0.43-0.203-0.43c-0.343,0-0.491,0.864-0.491,1.196c0,0.264,0.05,0.465,0.239,0.465
			C134.963,93.533,135.123,92.699,135.123,92.302"/>
	</g>
</g>
</svg>
