<?xml version="1.0" encoding="utf-8"?>
<!-- Generator: Adobe Illustrator 16.0.4, SVG Export Plug-In . SVG Version: 6.00 Build 0)  -->
<!DOCTYPE svg PUBLIC "-//W3C//DTD SVG 1.1//EN" "http://www.w3.org/Graphics/SVG/1.1/DTD/svg11.dtd">
<svg version="1.1" id="Ebene_1" xmlns="http://www.w3.org/2000/svg" xmlns:xlink="http://www.w3.org/1999/xlink" x="0px" y="0px"
	 width="160px" height="160px" viewBox="0 0 160 160" enable-background="new 0 0 160 160" xml:space="preserve">
<g>
	<path d="M37.438,123.009c-1.605,0.345-3.252,0.583-4.852,0.813c-0.654,0.095-1.277,0.184-1.88,0.278
		c-0.059,0.61-0.444,0.919-0.762,1.172c-0.265,0.212-0.472,0.377-0.537,0.682c0.266,0.004,0.547,0.006,0.839,0.006
		c1.606,0,3.659-0.066,6.275-0.205c8.164-0.43,14.088-2.062,18.643-5.137c3.663-2.471,6.152-5.714,8.173-9.051
		C56.525,119.867,46.901,121.844,37.438,123.009z"/>
	<path d="M90.573,90.333c-1.019-0.015-2.105-0.063-3.244-0.11c-0.78-0.033-1.552-0.064-2.295-0.064
		c-12.402,0-20.348,4.485-25.397,14.472c4.437-6.602,11.05-7.443,20.803-7.023c1.304-0.119,2.733-0.179,4.314-0.179
		c1.096,0,2.294,0.028,3.562,0.085c1.264,0.056,2.513,0.084,3.714,0.084c7.565,0,13.835-1.102,18.636-3.273
		c2.758-1.249,5.027-2.856,6.798-4.806C111.639,93.887,99.975,91.496,90.573,90.333z"/>
	<path d="M118.959,41.941l-0.004,0.016c0.018-0.005,0.034-0.011,0.053-0.016H118.959z"/>
	<path d="M0,0v160h160V0H0z M130.771,29.373c-0.156,0.715-1.001,3.875-1.24,4.801c-2.318,0.054-4.542,0.257-6.625,0.609
		c-2.313,0.391-4.469,0.965-6.408,1.708c-3.643,1.394-6.49,3.368-8.235,5.708c-0.434,0.581-0.794,1.178-1.079,1.785
		C105.259,37.324,113.733,29.373,130.771,29.373z M130.771,34.814c-0.162,0.74-1.062,4.099-1.264,4.89
		c-0.802,0.02-1.577,0.056-2.324,0.107c-2.36,0.121-4.658,0.467-6.758,1.005c-3.06,0.732-5.351,1.714-6.977,2.606
		c-2.022,1.109-3.657,2.418-4.861,3.889c-0.573,0.703-1.038,1.427-1.389,2.168C105.215,42.808,113.688,34.814,130.771,34.814z
		 M115.961,43.007l-0.093-0.153l0.199-0.198c0.005-0.002,0.009-0.004,0.013-0.006l0.275,0.252c0.486-0.195,0.645-0.382,1.645-0.558
		v-0.119l0.146-0.29c0.469-0.156,0.896-0.308,1.418-0.451l-0.122,0.399c0.13-0.036-0.442-0.073,0.558-0.109v-0.072v-0.209v-0.116
		c0-0.048,0.314-0.096,0.503-0.142l0.144,0.283c0.283-0.067,0.557-0.132,0.848-0.192l0.037-0.196l0.468-0.206l0.102-0.072
		c0.35-0.072,0.703-0.141,1.061-0.203l0.354,0.111l-0.192-0.138c0.74-0.124,1.494-0.228,2.261-0.306
		c0.172,0.103,0.343,0.209,0.509,0.318c1.48-0.139,3.04-0.213,4.679-0.213c-0.167,0.761-1.113,4.29-1.277,4.95
		c-13.967-0.164-27.311,7.737-12.722,17.179C103.48,58.699,104.047,47.975,115.961,43.007z M125.562,64.804
		c-0.467,3.689-1.587,10.979-3.852,18.347c-1.611,5.247-5.247,9.183-10.807,11.698c-4.875,2.207-11.225,3.326-18.874,3.326
		c-1.21,0-2.467-0.029-3.739-0.085c-1.26-0.056-2.449-0.084-3.536-0.084c-12.043,0-15.054,3.298-19.505,11.395
		c-2.318,4.219-5.105,8.556-9.761,11.698c-4.646,3.134-10.664,4.799-18.937,5.233c-2.626,0.14-4.689,0.206-6.306,0.206
		c-0.409,0-0.799-0.005-1.156-0.013c-0.153-0.004-0.275-0.125-0.281-0.278c-0.028-0.783,0.417-1.14,0.774-1.426
		c0.335-0.268,0.576-0.46,0.549-0.952c-0.007-0.148,0.098-0.278,0.244-0.301c0.681-0.11,1.384-0.211,2.128-0.319
		c1.741-0.251,3.541-0.511,5.27-0.905c7.062-1.616,11.301-3.352,14.172-5.802c2.833-2.416,4.252-5.466,5.947-9.511
		c2.563-6.117,5.98-10.473,10.444-13.313c4.393-2.794,9.854-4.152,16.697-4.152c0.751,0,1.531,0.167,2.317,0.2
		C88.688,89.822,89.955,90,91.116,90h0.002c5.951,0,9.962-0.891,12.623-2.482c2.292-1.369,3.774-3.479,5.118-7.102
		c2.389-6.434,3.478-15.234,3.488-15.321c0.208-1.616,4.877-2.495,8.167-2.495c1.377,0,3.821,0.142,4.715,1.156
		C125.5,64.063,125.61,64.409,125.562,64.804z M131.313,49.661l-0.109-0.575l-0.639-1.152l-0.229,0.472l-0.148,0.994L130,50.814
		v0.89v-0.575v-0.262l-0.572-0.891l0.023-0.365l-0.349-0.418l-0.542-0.206l-0.48-0.412l-0.579,0.117l-0.161,0.351L127.182,49h-0.523
		l-0.171-0.323l-0.328,0.283l-0.446-0.33l-0.25-0.479L125,48.353v0.314l0.604,0.732L126,49.452v0.262l0.014,0.413l0.395-0.087
		L126.343,50h0.263h0.156h0.263l0.157,0.041l-0.262,0.279l0.052,0.302l-0.21,0.311l-0.262,0.372l-0.68,0.59l-0.682,0.615L124.981,53
		h-0.209l-0.21-0.364l0.053-0.421L122.468,49h-0.262l-0.262,0.645l1.151,1.635l0.523,1.312l0.891,0.839l1.101-0.156l0.418-0.105
		l-0.995,1.939l-0.315,0.053l-1.415,2.461l0.259,0.524l-0.267,0.838l-0.851,0.419l-0.39,0.419l-0.163,0.576L121,60.556v0.313
		l-0.008,0.105l-0.039,0.366l-0.498,0.104l-1.421-0.052L118,60.45v-0.21l-0.568-0.994l0.665-0.89l-0.119-0.629l-0.976-1.361
		l0.114-0.787l-0.521-0.731l-0.521,0.156l-0.316-0.472l-1.21-0.209l-0.218,0.209l-1.488-0.366l-0.375-0.576L112,52.28v-0.157
		c1-1.697,2.871-3.134,5.49-4.212l-0.14,0.127l0.987,0.472l0.546,0.419l0.509-0.209l0.308-0.367l0.624,0.472l0.626,0.053
		l0.681-0.052l0.838-0.312l0.156-0.993l-0.262-0.465l-0.839-0.042l-0.681-0.03l-0.032-0.37c0.72-0.182,1.462-0.612,2.223-0.612H123
		v0.269c0-0.073,0.877-0.14,1.305-0.198l0.135,0.165L124.719,47h0.263l0.262,0.179l0.315-0.068l-0.054-0.661l-0.303-0.498
		c1.482-0.167,3.008-0.242,4.54-0.224c0.04-0.156,0.122-0.472,0.228-0.872c0.78,1.428,1.276,3.035,1.41,4.741L131.313,49.661z"/>
</g>
</svg>
